<?xml version="1.0" encoding="utf-8"?>
<!-- Generator: Adobe Illustrator 16.0.0, SVG Export Plug-In . SVG Version: 6.00 Build 0)  -->
<!DOCTYPE svg PUBLIC "-//W3C//DTD SVG 1.1//EN" "http://www.w3.org/Graphics/SVG/1.1/DTD/svg11.dtd">
<svg version="1.1" id="Calque_1" xmlns="http://www.w3.org/2000/svg" xmlns:xlink="http://www.w3.org/1999/xlink" x="0px" y="0px"
	 width="376.854px" height="379px" viewBox="0 0 376.854 379" enable-background="new 0 0 376.854 379" xml:space="preserve">
<path fill="#FBB040" stroke="#F7941E" stroke-width="4" stroke-miterlimit="10" d="M362.96,229.91c0-5.014-1.041-9.786-2.92-14.108
	c-0.999,0.125-2.012,0.198-3.04,0.198c-11.325,0-21.085-7.856-24.063-18.331c-1.285,0.213-2.6,0.331-3.938,0.331
	c-13.628,0-25-11.372-25-25c0-0.335,0.013-0.668,0.026-1c-0.014-0.332-0.026-0.665-0.026-1c0-2.533,0.395-4.988,1.122-7.308
	c-6.571-4.463-10.987-11.951-11.112-20.329c-5.335-3.215-11.579-5.074-18.26-5.074c-10.28,0-19.53,4.37-25.99,11.37
	c-6.47-7-15.73-11.37-26.01-11.37c-12.48,0-23.45,6.45-29.76,16.19c-6.48-7.14-15.84-11.62-26.24-11.62
	c-19.57,0-35.43,15.86-35.43,35.43c0,10.18,4.29,19.36,11.17,25.81c-6.88,6.45-11.17,15.63-11.17,25.81
	c0,11.34,5.32,21.43,13.61,27.91c-8.29,6.47-13.61,16.56-13.61,27.9c0,9.91,4.06,18.86,10.62,25.29
	c-6.56,6.42-10.62,15.37-10.62,25.28c0,19.57,15.86,35.43,35.43,35.43c11.39,0,21.52-5.37,28.01-13.72
	c6.47,8.35,16.6,13.72,27.99,13.72c10.28,0,19.54-4.37,26.01-11.37c6.46,7,15.71,11.37,25.99,11.37c10.22,0,19.43-4.32,25.89-11.25
	c6.46,6.93,15.67,11.25,25.891,11.25c19.569,0,35.43-15.86,35.43-35.43c0-9.91-4.06-18.86-10.62-25.28
	c6.561-6.43,10.62-15.38,10.62-25.29c0-11.34-5.32-21.43-13.61-27.9C357.64,251.34,362.96,241.25,362.96,229.91z"/>
<text transform="matrix(1 0 0 1 212.3335 303.3433)" fill="#FFFFFF" font-family="'Rubik-Italic'" font-size="125">B</text>
<path fill="#FBB040" stroke="#F7941E" stroke-width="4" stroke-miterlimit="10" d="M240.974,100.238
	c0-10.18-4.291-19.36-11.17-25.81c6.879-6.45,11.17-15.63,11.17-25.81c0-19.57-15.861-35.43-35.43-35.43
	c-9.15,0-17.49,3.47-23.771,9.16c-6.479-8.36-16.619-13.73-28.01-13.73c-10.279,0-19.529,4.37-25.99,11.37
	c-6.469-7-15.729-11.37-26.01-11.37c-12.479,0-23.449,6.45-29.76,16.19c-6.48-7.14-15.84-11.62-26.24-11.62
	c-19.57,0-35.43,15.86-35.43,35.43c0,10.18,4.29,19.36,11.17,25.81c-6.88,6.45-11.17,15.63-11.17,25.81
	c0,11.34,5.32,21.43,13.61,27.91c-8.29,6.47-13.61,16.56-13.61,27.9c0,9.91,4.06,18.86,10.62,25.29
	c-6.56,6.42-10.62,15.37-10.62,25.28c0,19.57,15.86,35.43,35.43,35.43c11.391,0,21.521-5.37,28.01-13.72
	c6.471,8.35,16.601,13.72,27.99,13.72c10.28,0,19.541-4.37,26.01-11.37c6.461,7,15.711,11.37,25.99,11.37
	c10.221,0,19.43-4.32,25.891-11.25c6.459,6.93,15.67,11.25,25.891,11.25c19.568,0,35.43-15.86,35.43-35.43
	c0-9.91-4.061-18.86-10.621-25.28c6.561-6.43,10.621-15.38,10.621-25.29c0-11.34-5.32-21.43-13.611-27.9
	C235.654,121.668,240.974,111.578,240.974,100.238z"/>
<text transform="matrix(1 0 0 1 83.667 164.3433)" fill="#FFFFFF" font-family="'Rubik-Italic'" font-size="125">S</text>
<circle fill="#FBB040" stroke="#F7941E" stroke-miterlimit="10" cx="315.914" cy="146.913" r="7.086"/>
<circle fill="#FBB040" stroke="#F7941E" stroke-miterlimit="10" cx="323" cy="178.74" r="7.086"/>
<circle fill="#FBB040" stroke="#F7941E" stroke-miterlimit="10" cx="337.172" cy="161.086" r="7.086"/>
<circle fill="#FBB040" stroke="#F7941E" stroke-miterlimit="10" cx="351.344" cy="192.913" r="7.086"/>
</svg>
